<svg width="20" height="20" viewBox="0 0 20 20" fill="none" xmlns="http://www.w3.org/2000/svg">
<g id="3d">
<g id="Vector">
<path fill-rule="evenodd" clip-rule="evenodd" d="M5.83333 2.91665C5.50181 2.91665 5.18387 3.04834 4.94945 3.28276C4.71503 3.51718 4.58333 3.83513 4.58333 4.16665V15.8333C4.58333 16.1648 4.71503 16.4828 4.94945 16.7172C5.18387 16.9516 5.50181 17.0833 5.83333 17.0833H14.1667C14.4982 17.0833 14.8161 16.9516 15.0505 16.7172C15.285 16.4828 15.4167 16.1648 15.4167 15.8333V7.84507C15.4166 7.7346 15.3727 7.62859 15.2946 7.55049L10.7829 3.03877C10.7048 2.96065 10.5988 2.91669 10.4883 2.91665H5.83333ZM4.36019 2.69351C4.75089 2.30281 5.2808 2.08331 5.83333 2.08331H10.4883C10.8198 2.08338 11.1378 2.21511 11.3721 2.44952M11.3721 2.44952L15.8838 6.96114C16.1182 7.1955 16.2499 7.51342 16.25 7.84489V15.8333C16.25 16.3858 16.0305 16.9158 15.6398 17.3065C15.2491 17.6972 14.7192 17.9166 14.1667 17.9166H5.83333C5.2808 17.9166 4.75089 17.6972 4.36019 17.3065C3.96949 16.9158 3.75 16.3858 3.75 15.8333V4.16665C3.75 3.61411 3.96949 3.08421 4.36019 2.69351" fill="#3F82EF"/>
<path fill-rule="evenodd" clip-rule="evenodd" d="M9.48959 7.12731C9.60689 7.06866 9.74496 7.06866 9.86226 7.12731L10.6146 7.50347C10.8204 7.60638 10.9038 7.85666 10.8009 8.06249C10.698 8.26831 10.4477 8.35174 10.2419 8.24882L9.67593 7.96584L9.10995 8.24882C8.90413 8.35174 8.65385 8.26831 8.55093 8.06249C8.44802 7.85666 8.53145 7.60638 8.73727 7.50347L9.48959 7.12731ZM11.7917 8.44212C11.8946 8.2363 12.1449 8.15287 12.3507 8.25578L13.103 8.63194C13.2442 8.70252 13.3333 8.8468 13.3333 9.00462V9.94501C13.3333 10.1751 13.1468 10.3617 12.9167 10.3617C12.6865 10.3617 12.5 10.1751 12.5 9.94501V9.6788L12.3507 9.75345C12.1449 9.85637 11.8946 9.77294 11.7917 9.56711C11.6888 9.36129 11.7722 9.11101 11.978 9.0081L11.985 9.00462L11.978 9.00114C11.7722 8.89823 11.6888 8.64795 11.7917 8.44212ZM7.79166 8.44212C7.89457 8.64795 7.81114 8.89823 7.60532 9.00114L7.59836 9.00462L7.60532 9.0081C7.81114 9.11101 7.89457 9.36129 7.79166 9.56711C7.68875 9.77294 7.43847 9.85637 7.23264 9.75345L7.08333 9.6788V9.94501C7.08333 10.1751 6.89679 10.3617 6.66667 10.3617C6.43655 10.3617 6.25 10.1751 6.25 9.94501V9.00462C6.25 8.8468 6.33917 8.70252 6.48033 8.63194L7.23264 8.25578C7.43847 8.15287 7.68875 8.2363 7.79166 8.44212ZM8.55093 9.94675C8.65385 9.74093 8.90413 9.6575 9.10995 9.76041L9.67593 10.0434L10.2419 9.76041C10.4477 9.6575 10.698 9.74093 10.8009 9.94675C10.9038 10.1526 10.8204 10.4029 10.6146 10.5058L10.0926 10.7668V11.4496C10.0926 11.6798 9.90604 11.8663 9.67593 11.8663C9.44581 11.8663 9.25926 11.6798 9.25926 11.4496V10.7668L8.73727 10.5058C8.53145 10.4029 8.44802 10.1526 8.55093 9.94675ZM6.66667 11.4091C6.89679 11.4091 7.08333 11.5957 7.08333 11.8258V12.5087L7.60532 12.7697C7.81114 12.8726 7.89457 13.1229 7.79166 13.3287C7.68875 13.5345 7.43847 13.6179 7.23264 13.515L6.48033 13.1389C6.33917 13.0683 6.25 12.924 6.25 12.7662V11.8258C6.25 11.5957 6.43655 11.4091 6.66667 11.4091ZM12.9167 11.4091C13.1468 11.4091 13.3333 11.5957 13.3333 11.8258V12.7662C13.3333 12.924 13.2442 13.0683 13.103 13.1389L12.3507 13.515C12.1449 13.6179 11.8946 13.5345 11.7917 13.3287C11.6888 13.1229 11.7722 12.8726 11.978 12.7697L12.5 12.5087V11.8258C12.5 11.5957 12.6865 11.4091 12.9167 11.4091ZM9.67593 12.9138C9.90604 12.9138 10.0926 13.1003 10.0926 13.3304V13.5966L10.2419 13.522C10.4477 13.4191 10.698 13.5025 10.8009 13.7083C10.9038 13.9142 10.8204 14.1644 10.6146 14.2673L9.86226 14.6435C9.74496 14.7022 9.60689 14.7022 9.48959 14.6435L8.73727 14.2673C8.53145 14.1644 8.44802 13.9142 8.55093 13.7083C8.65385 13.5025 8.90413 13.4191 9.10995 13.522L9.25926 13.5966V13.3304C9.25926 13.1003 9.44581 12.9138 9.67593 12.9138Z" fill="#3F82EF"/>
</g>
</g>
</svg>
