<svg width="20" height="20" viewBox="0 0 20 20" fill="none" xmlns="http://www.w3.org/2000/svg">
<g id="mp4">
<g id="Vector">
<path fill-rule="evenodd" clip-rule="evenodd" d="M5.83333 2.91665C5.50181 2.91665 5.18387 3.04834 4.94945 3.28276C4.71503 3.51718 4.58333 3.83513 4.58333 4.16665V15.8333C4.58333 16.1648 4.71503 16.4828 4.94945 16.7172C5.18387 16.9516 5.50181 17.0833 5.83333 17.0833H14.1667C14.4982 17.0833 14.8161 16.9516 15.0505 16.7172C15.285 16.4828 15.4167 16.1648 15.4167 15.8333V7.84507C15.4166 7.7346 15.3727 7.62859 15.2946 7.55049L10.7829 3.03877C10.7048 2.96065 10.5988 2.91669 10.4883 2.91665H5.83333ZM4.36019 2.69351C4.75089 2.30281 5.2808 2.08331 5.83333 2.08331H10.4883C10.8198 2.08338 11.1378 2.21511 11.3721 2.44952M11.3721 2.44952L15.8838 6.96114C16.1182 7.1955 16.2499 7.51342 16.25 7.84489V15.8333C16.25 16.3858 16.0305 16.9158 15.6398 17.3065C15.2491 17.6972 14.7192 17.9166 14.1667 17.9166H5.83333C5.2808 17.9166 4.75089 17.6972 4.36019 17.3065C3.96949 16.9158 3.75 16.3858 3.75 15.8333V4.16665C3.75 3.61411 3.96949 3.08421 4.36019 2.69351" fill="#E72A2A"/>
<path fill-rule="evenodd" clip-rule="evenodd" d="M6.22657 8.30988C6.47836 8.0581 6.81985 7.91665 7.17593 7.91665H10.3241C10.6802 7.91665 11.0216 8.0581 11.2734 8.30988C11.5252 8.56167 11.6667 8.90316 11.6667 9.25924V9.46447L12.8722 8.77037C12.8793 8.76628 12.8865 8.7624 12.8938 8.75874C13.0279 8.69174 13.1769 8.66011 13.3266 8.66686C13.4763 8.6736 13.6219 8.71849 13.7494 8.79727C13.8769 8.87605 13.9821 8.9861 14.0552 9.11699C14.1282 9.24788 14.1666 9.39525 14.1667 9.54513V12.6768C14.1666 12.8267 14.1282 12.9743 14.0552 13.1052C13.9821 13.2361 13.8769 13.3461 13.7494 13.4249C13.6219 13.5037 13.4763 13.5486 13.3266 13.5553C13.1769 13.5621 13.0279 13.5304 12.8938 13.4634C12.8865 13.4598 12.8793 13.4559 12.8722 13.4518L11.6667 12.7577V12.9629C11.6667 13.319 11.5252 13.6605 11.2734 13.9123C11.0216 14.1641 10.6802 14.3055 10.3241 14.3055H7.17593C6.81985 14.3055 6.47836 14.1641 6.22657 13.9123C5.97479 13.6605 5.83333 13.319 5.83333 12.9629V9.25924C5.83333 8.90316 5.97479 8.56167 6.22657 8.30988ZM11.6667 11.7961L13.2718 12.7203C13.2773 12.7222 13.2832 12.7231 13.2891 12.7228C13.297 12.7225 13.3047 12.7201 13.3114 12.716C13.3181 12.7118 13.3236 12.706 13.3275 12.6991C13.3313 12.6923 13.3333 12.6845 13.3333 12.6766V9.54557C13.3333 9.53768 13.3313 9.52992 13.3275 9.52304C13.3236 9.51615 13.3181 9.51036 13.3114 9.50621C13.3047 9.50206 13.297 9.4997 13.2891 9.49935C13.2832 9.49908 13.2773 9.49995 13.2718 9.50188L11.6667 10.4261V11.7961ZM10.8333 9.25924C10.8333 9.12418 10.7797 8.99464 10.6842 8.89914C10.5887 8.80363 10.4591 8.74998 10.3241 8.74998H7.17593C7.04086 8.74998 6.91133 8.80363 6.81583 8.89914C6.72032 8.99464 6.66667 9.12417 6.66667 9.25924V12.9629C6.66667 13.098 6.72032 13.2275 6.81583 13.323C6.91133 13.4185 7.04086 13.4722 7.17593 13.4722H10.3241C10.4591 13.4722 10.5887 13.4185 10.6842 13.323C10.7797 13.2275 10.8333 13.098 10.8333 12.9629V9.25924Z" fill="#E72A2A"/>
</g>
</g>
</svg>
