<svg width="16" height="14" viewBox="0 0 16 14" fill="none" xmlns="http://www.w3.org/2000/svg">
<path d="M1.59999 13.6514C1.15999 13.6514 0.783322 13.4947 0.469989 13.1814C0.156655 12.868 -1.14441e-05 12.4914 -1.14441e-05 12.0514V2.45138C-1.14441e-05 2.01138 0.156655 1.63471 0.469989 1.32138C0.783322 1.00805 1.15999 0.851379 1.59999 0.851379H6.39999L7.99999 2.45138H14.4C14.84 2.45138 15.2167 2.60805 15.53 2.92138C15.8433 3.23471 16 3.61138 16 4.05138V12.0514C16 12.4914 15.8433 12.868 15.53 13.1814C15.2167 13.4947 14.84 13.6514 14.4 13.6514H1.59999Z" fill="#999999"/>
</svg>
