<svg width="18" height="14" viewBox="0 0 18 14" fill="none" xmlns="http://www.w3.org/2000/svg">
<path d="M2.33333 13.6666C1.875 13.6666 1.47917 13.5069 1.14583 13.1875C0.826388 12.8541 0.666666 12.4583 0.666666 12V1.99998C0.666666 1.54165 0.826388 1.15276 1.14583 0.833313C1.47917 0.499979 1.875 0.333313 2.33333 0.333313H15.6667C16.125 0.333313 16.5139 0.499979 16.8333 0.833313C17.1667 1.15276 17.3333 1.54165 17.3333 1.99998V12C17.3333 12.4583 17.1667 12.8541 16.8333 13.1875C16.5139 13.5069 16.125 13.6666 15.6667 13.6666H2.33333ZM9 7.83331L15.6667 3.66665V1.99998L9 6.16665L2.33333 1.99998V3.66665L9 7.83331Z" fill="#999999"/>
</svg>
