<svg width="14" height="16" viewBox="0 0 14 16" fill="none" xmlns="http://www.w3.org/2000/svg">
<path fill-rule="evenodd" clip-rule="evenodd" d="M5.0006 2.17606C5.0006 1.41611 5.61666 0.800049 6.37661 0.800049H7.62317C8.38312 0.800049 8.99918 1.41611 8.99918 2.17606V2.86369C8.99918 3.05456 9.12536 3.25964 9.35748 3.38091C9.50278 3.45681 9.64394 3.5395 9.78053 3.62855C10.0021 3.77298 10.2456 3.78112 10.4127 3.68467L11.0124 3.33841C11.6706 2.95844 12.5121 3.18393 12.8921 3.84207L13.5154 4.92162C13.8953 5.57976 13.6699 6.42131 13.0117 6.80129L12.3644 7.17503C12.2008 7.26946 12.0869 7.47766 12.0952 7.73541C12.0969 7.79073 12.0978 7.84626 12.0978 7.90197C12.0978 7.99318 12.0954 8.08388 12.0907 8.174C12.0768 8.43775 12.1916 8.65248 12.3585 8.74887L13.0117 9.12599C13.6698 9.50597 13.8953 10.3475 13.5154 11.0057L12.8921 12.0852C12.5121 12.7433 11.6706 12.9688 11.0124 12.5889L10.312 12.1845C10.1484 12.09 9.91079 12.0956 9.69134 12.2322C9.58273 12.2999 9.47138 12.3635 9.35748 12.423C9.12536 12.5443 8.99918 12.7494 8.99918 12.9403V13.7512C8.99918 14.5112 8.38312 15.1272 7.62317 15.1272H6.37662C5.61666 15.1272 5.0006 14.5112 5.0006 13.7512V12.9402C5.0006 12.7493 4.87444 12.5443 4.64232 12.423C4.52844 12.3635 4.4171 12.2998 4.3085 12.2322C4.08906 12.0955 3.85147 12.09 3.68779 12.1845L2.98734 12.5889C2.3292 12.9688 1.48765 12.7433 1.10767 12.0852L0.484392 11.0057C0.104417 10.3475 0.329911 9.50597 0.988048 9.12599L1.64139 8.74878C1.80834 8.6524 1.92311 8.43767 1.90922 8.17392C1.90448 8.08383 1.90208 7.99316 1.90208 7.90197C1.90208 7.84628 1.90298 7.79078 1.90476 7.73549C1.91304 7.47774 1.79909 7.26955 1.63553 7.17511L0.988041 6.80129C0.329904 6.42131 0.10441 5.57976 0.484385 4.92162L1.10766 3.84207C1.48764 3.18393 2.32919 2.95844 2.98733 3.33841L3.58714 3.68472C3.75419 3.78116 3.99776 3.77302 4.21931 3.62859C4.3559 3.53955 4.49704 3.45687 4.64232 3.38096C4.87444 3.25969 5.0006 3.05462 5.0006 2.86375V2.17606ZM7 9.5C7.82843 9.5 8.5 8.82843 8.5 8C8.5 7.17157 7.82843 6.5 7 6.5C6.17157 6.5 5.5 7.17157 5.5 8C5.5 8.82843 6.17157 9.5 7 9.5Z" fill="#999999"/>
</svg>
