<svg width="14" height="17" viewBox="0 0 14 17" fill="none" xmlns="http://www.w3.org/2000/svg">
<path fill-rule="evenodd" clip-rule="evenodd" d="M6.90518 16.2358C6.96776 16.2566 7.02871 16.2574 7.09129 16.2358C7.89094 15.9718 13.5865 13.8662 13.5865 7.65413V2.09488C13.5866 2.02338 13.5622 1.95389 13.5169 1.89748C13.4717 1.84108 13.4083 1.80101 13.3369 1.78367L7.07812 0.261261C7.02567 0.248525 6.9708 0.248525 6.91835 0.261261L0.65953 1.78367C0.588128 1.80101 0.52476 1.84108 0.479533 1.89748C0.434307 1.95389 0.409828 2.02338 0.410001 2.09488V7.65333C0.410001 13.803 6.10718 15.963 6.90518 16.2358ZM10.9627 5.51571C11.0255 5.43019 11.0704 5.33349 11.0948 5.23112C11.1191 5.12876 11.1225 5.02273 11.1047 4.9191C11.0869 4.81547 11.0482 4.71626 10.9909 4.62714C10.9336 4.53802 10.8589 4.46074 10.7708 4.3997C10.6828 4.33866 10.5832 4.29506 10.4779 4.2714C10.3725 4.24773 10.2633 4.24446 10.1567 4.26177C10.05 4.27908 9.94787 4.31663 9.85613 4.37228C9.76439 4.42793 9.68483 4.50058 9.622 4.5861L6.06929 9.41815L4.28635 7.68533C4.13103 7.5396 3.92301 7.45896 3.70708 7.46079C3.49116 7.46261 3.2846 7.54675 3.13191 7.69507C2.97923 7.8434 2.89262 8.04405 2.89074 8.25381C2.88886 8.46357 2.97187 8.66566 3.12188 8.81654L5.59247 11.2166C5.67705 11.2986 5.77899 11.3618 5.89122 11.4017C6.00344 11.4416 6.12327 11.4573 6.24238 11.4477C6.36148 11.4381 6.47701 11.4035 6.58095 11.3461C6.68488 11.2888 6.77472 11.2102 6.84423 11.1158L10.9627 5.51571Z" fill="#999999"/>
</svg>
